# xmcd
#
# Track frame offsets:
#	150
#	18024
#	33849
#	53416
#	70792
#	89016
#	101675
#	119217
#	136102
#	146610
#	164212
#	185853
#	199976
#	215764
#	236701
#	252298
#	262791
#	279560
#	288594
#	303777
#	319701
#	335285
#
# Disc length: 4708 seconds
#
# Revision: 0
# Processed by: cddbd v1.5.2PL0 Copyright (c) Steve Scherf et al.
# Submitted via: EasyCDDAExtractor 11.0.2.1
#
DISCID=4f126216
DTITLE=Various Artist - CMT Country Way Songwriters Collection
DYEAR=2008
DGENRE=Country
TTITLE0=The Steeldrivers - If it hadn't been for love
TTITLE1=Lori McKenna - Witness to your life
TTITLE2=Ashton Shepherd - Old Memory
TTITLE3=Lady Antebellum - Love don't live here
TTITLE4=Hayes Carll - She left me for Jesus
TTITLE5=Justin Townes Earle - Hard Livin'
TTITLE6=The Avett Brothers - Shame
TTITLE7=Tift Merritt - Broken
TTITLE8=Willie Nelson - You don't think I'm funny anymore
TTITLE9=Gary Allan - Yesterday's Rain
TTITLE10=Jerry Jeff Walker - Mr. Bojangles
TTITLE11=The Texas Playboys - Big Ball's in Cowtown
TTITLE12=James Otto - Sunset Man
TTITLE13=Ryan Bingham - Hard Times
TTITLE14=John Prine - Speed of the Sound of Lonliness
TTITLE15=Dale Watson - From the Cradle to the Grave
TTITLE16=Jeff Bates - Riverbank
TTITLE17=Earl Taylor and The Stoney Mountain Boys - White House Blues
TTITLE18=Alex Harvey - Delta Dawn
TTITLE19=Mac McAnally - Back Where I come From
TTITLE20=The Everybodyfields - Aeroplane
TTITLE21=Ashley Monroe - Shine
EXTD=
EXTT0=
EXTT1=
EXTT2=
EXTT3=
EXTT4=
EXTT5=
EXTT6=
EXTT7=
EXTT8=
EXTT9=
EXTT10=
EXTT11=
EXTT12=
EXTT13=
EXTT14=
EXTT15=
EXTT16=
EXTT17=
EXTT18=
EXTT19=
EXTT20=
EXTT21=
PLAYORDER=
